<svg width="21" height="21" viewBox="0 0 21 21" fill="none" xmlns="http://www.w3.org/2000/svg">
<path d="M9.66758 2.93287H4.41758C2.67788 2.93287 1.26758 4.34317 1.26758 6.08287V16.583C1.26758 18.3227 2.67788 19.733 4.41758 19.733H14.9176C16.6573 19.733 18.0676 18.3227 18.0676 16.583L18.0676 11.3329M6.51758 14.4829L10.3378 13.7131C10.5406 13.6723 10.7268 13.5724 10.8731 13.4261L19.4251 4.8694C19.8351 4.45916 19.8348 3.79417 19.4244 3.38426L17.6128 1.5747C17.2026 1.16496 16.538 1.16524 16.1281 1.57532L7.57525 10.1329C7.42928 10.2789 7.32962 10.4647 7.28872 10.6671L6.51758 14.4829Z" stroke="#658DED" stroke-width="1.5" stroke-linecap="round" stroke-linejoin="round"/>
</svg>
